<?xml version="1.0" encoding="UTF-8" standalone="no"?>
<!DOCTYPE svg PUBLIC "-//W3C//DTD SVG 1.1//EN" "http://www.w3.org/Graphics/SVG/1.1/DTD/svg11.dtd">
<svg width="100%" height="100%" viewBox="0 0 1024 1024" version="1.1" xmlns="http://www.w3.org/2000/svg" xmlns:xlink="http://www.w3.org/1999/xlink" xml:space="preserve" xmlns:serif="http://www.serif.com/" style="fill-rule:evenodd;clip-rule:evenodd;stroke-linejoin:round;stroke-miterlimit:2;">
    <path d="M447.464,523.291C482.455,526.952 499.827,555.851 488.796,576.894C477.765,597.938 443.51,601.761 412.349,585.426C381.189,569.091 343.958,527.795 354.989,506.751C366.02,485.707 403.344,518.676 447.464,523.291Z" style="fill:rgb(134,239,172);"/>
    <path d="M535.545,569.53C506.559,577.109 495.613,603.647 507.575,619.926C519.537,636.204 548.855,635.013 573.004,617.267C597.153,599.522 623.236,560.003 611.274,543.724C599.312,527.446 572.092,559.973 535.545,569.53Z" style="fill:rgb(134,239,172);"/>
    <path d="M506.825,192.34C506.825,192.34 472.839,875.829 420.208,1025.16C367.578,1174.48 479.012,1148.53 484.819,1108.35C527.956,809.791 506.825,192.34 506.825,192.34Z" style="fill:rgb(74,222,128);"/>
    <g>
        <circle cx="507.978" cy="242.419" r="85.966" style="fill:rgb(232,212,255);"/>
        <circle cx="459.064" cy="344.633" r="85.966" style="fill:rgb(232,212,255);"/>
        <circle cx="406.127" cy="228.347" r="85.966" style="fill:rgb(232,212,255);"/>
        <circle cx="507.978" cy="172.702" r="85.966" style="fill:rgb(232,212,255);"/>
        <circle cx="597.966" cy="242.419" r="85.966" style="fill:rgb(232,212,255);"/>
        <circle cx="545.029" cy="344.633" r="85.966" style="fill:rgb(232,212,255);"/>
        <circle cx="507.978" cy="278.306" r="85.966" style="fill:rgb(232,212,255);"/>
        <path d="M529.743,156.453L536.26,236.884L614.769,255.54L540.289,286.594L546.806,367.025L494.257,305.786L419.777,336.839L461.78,267.938L409.231,206.699L487.74,225.354L529.743,156.453Z" style="fill:rgb(194,125,220);"/>
    </g>
</svg>
