<?xml version="1.0" encoding="UTF-8" standalone="no"?>
<!DOCTYPE svg PUBLIC "-//W3C//DTD SVG 1.1//EN" "http://www.w3.org/Graphics/SVG/1.1/DTD/svg11.dtd">
<svg width="100%" height="100%" viewBox="0 0 1024 1024" version="1.1" xmlns="http://www.w3.org/2000/svg" xmlns:xlink="http://www.w3.org/1999/xlink" xml:space="preserve" xmlns:serif="http://www.serif.com/" style="fill-rule:evenodd;clip-rule:evenodd;stroke-linejoin:round;stroke-miterlimit:2;">
    <g>
        <path d="M179.315,381.301C179.315,381.301 109.634,778.928 157.212,1031.2C204.791,1283.47 254.572,1080.12 237.339,1057.86C155.61,952.298 179.315,381.301 179.315,381.301Z" style="fill:rgb(134,239,172);"/>
        <path d="M288.244,415.084C288.244,415.084 175.844,802.807 195.779,1058.75C215.714,1314.7 287.258,1117.94 272.542,1093.95C202.745,980.141 288.244,415.084 288.244,415.084Z" style="fill:rgb(134,239,172);"/>
        <path d="M378.818,460.532C378.818,460.532 346.259,862.904 416.996,1109.68C487.732,1356.47 518.467,1149.38 499.248,1128.81C408.094,1031.27 378.818,460.532 378.818,460.532Z" style="fill:rgb(134,239,172);"/>
        <path d="M104.351,502.237C104.351,502.237 68.146,904.297 136.642,1151.71C205.139,1399.12 237.75,1192.32 218.717,1171.58C128.451,1073.22 104.351,502.237 104.351,502.237Z" style="fill:rgb(134,239,172);"/>
        <path d="M793.171,464.703C793.171,464.703 644.119,839.865 639.426,1096.54C634.732,1353.22 724.809,1164.23 712.46,1138.93C653.895,1018.96 793.171,464.703 793.171,464.703Z" style="fill:rgb(134,239,172);"/>
        <path d="M855.712,460.532C855.712,460.532 847.558,864.137 933.096,1106.19C1018.63,1348.24 1036.78,1139.67 1016.36,1120.3C919.466,1028.45 855.712,460.532 855.712,460.532Z" style="fill:rgb(134,239,172);"/>
        <path d="M1021.44,460.298C1021.44,460.298 909.677,848.204 930.03,1104.12C950.383,1360.03 1021.61,1163.16 1006.85,1139.19C936.867,1025.49 1021.44,460.298 1021.44,460.298Z" style="fill:rgb(134,239,172);"/>
        <path d="M824.082,415.084C824.082,415.084 768.615,909.437 714.58,1012.61C660.546,1115.78 764.782,1108.79 771.574,1080.13C822.036,867.214 824.082,415.084 824.082,415.084Z" style="fill:rgb(134,239,172);"/>
        <path d="M464.724,464.703C464.724,464.703 516.635,959.442 486,1071.81C455.365,1184.17 555.671,1154.97 556.155,1125.52C559.751,906.739 464.724,464.703 464.724,464.703Z" style="fill:rgb(134,239,172);"/>
        <path d="M598.812,458.445C598.812,458.445 567.034,954.884 517.993,1060.52C468.951,1166.16 572.733,1154.19 578.148,1125.24C618.376,910.156 598.812,458.445 598.812,458.445Z" style="fill:rgb(134,239,172);"/>
        <path d="M259.761,444.41C259.761,444.41 311.671,939.149 281.036,1051.51C250.401,1163.88 350.707,1134.68 351.191,1105.23C354.787,886.445 259.761,444.41 259.761,444.41Z" style="fill:rgb(134,239,172);"/>
    </g>
    <g>
        <path d="M111.669,354.686C111.669,354.686 39.905,764.192 88.905,1024C137.905,1283.81 189.173,1074.38 171.426,1051.46C87.255,942.741 111.669,354.686 111.669,354.686Z" style="fill:rgb(74,222,128);"/>
        <path d="M223.852,389.479C223.852,389.479 108.094,788.784 128.624,1052.37C149.155,1315.96 222.836,1113.33 207.68,1088.62C135.798,971.416 223.852,389.479 223.852,389.479Z" style="fill:rgb(74,222,128);"/>
        <path d="M317.131,436.284C317.131,436.284 283.6,850.676 356.449,1104.83C429.299,1358.98 460.952,1145.71 441.158,1124.53C347.281,1024.07 317.131,436.284 317.131,436.284Z" style="fill:rgb(74,222,128);"/>
        <path d="M34.465,479.235C34.465,479.235 -2.822,893.306 67.721,1148.11C138.263,1402.91 171.848,1189.93 152.248,1168.58C59.285,1067.27 34.465,479.235 34.465,479.235Z" style="fill:rgb(74,222,128);"/>
        <path d="M743.863,440.579C743.863,440.579 590.358,826.948 585.524,1091.29C580.69,1355.64 673.457,1161 660.74,1134.95C600.426,1011.39 743.863,440.579 743.863,440.579Z" style="fill:rgb(74,222,128);"/>
        <path d="M808.272,436.284C808.272,436.284 799.874,851.945 887.968,1101.23C976.061,1350.51 994.752,1135.71 973.713,1115.76C873.93,1021.17 808.272,436.284 808.272,436.284Z" style="fill:rgb(74,222,128);"/>
        <path d="M978.954,436.043C978.954,436.043 863.849,835.537 884.81,1099.09C905.771,1362.65 979.12,1159.9 963.924,1135.21C891.851,1018.12 978.954,436.043 978.954,436.043Z" style="fill:rgb(74,222,128);"/>
        <path d="M775.696,389.479C775.696,389.479 718.572,898.6 662.924,1004.86C607.275,1111.11 714.625,1103.9 721.62,1074.39C773.589,855.115 775.696,389.479 775.696,389.479Z" style="fill:rgb(74,222,128);"/>
        <path d="M405.604,440.579C405.604,440.579 459.065,950.098 427.515,1065.82C395.964,1181.54 499.267,1151.47 499.765,1121.14C503.469,895.82 405.604,440.579 405.604,440.579Z" style="fill:rgb(74,222,128);"/>
        <path d="M543.697,434.135C543.697,434.135 510.97,945.404 460.463,1054.2C409.956,1162.99 516.839,1150.66 522.415,1120.85C563.846,899.34 543.697,434.135 543.697,434.135Z" style="fill:rgb(74,222,128);"/>
        <path d="M194.517,419.68C194.517,419.68 247.979,929.199 216.428,1044.92C184.878,1160.64 288.18,1130.57 288.679,1100.24C292.382,874.921 194.517,419.68 194.517,419.68Z" style="fill:rgb(74,222,128);"/>
    </g>
</svg>
